<svg viewBox="0 0 200 200" xmlns="http://www.w3.org/2000/svg">
  <defs>
    <linearGradient id="redGradient" x1="0%" y1="0%" x2="100%" y2="100%">
      <stop offset="0%" style="stop-color:#e53e3e;stop-opacity:1" />
      <stop offset="100%" style="stop-color:#c53030;stop-opacity:1" />
    </linearGradient>
  </defs>
  
  <!-- Background with rounded corners -->
  <rect x="15" y="15" width="170" height="170" rx="40" ry="40" fill="url(#redGradient)" />
  
  <!-- Subtle inner shadow -->
  <rect x="15" y="15" width="170" height="170" rx="40" ry="40" fill="none" stroke="rgba(0,0,0,0.1)" stroke-width="2"/>
  
  <!-- Thermometer body -->
  <rect x="85" y="45" width="8" height="85" rx="4" ry="4" fill="white" opacity="0.9"/>
  
  <!-- Thermometer bulb -->
  <circle cx="89" cy="135" r="12" fill="white" opacity="0.9"/>
  
  <!-- Mercury/liquid in thermometer -->
  <rect x="87" y="75" width="4" height="55" rx="2" ry="2" fill="#e53e3e"/>
  <circle cx="89" cy="135" r="8" fill="#e53e3e"/>
  
  <!-- Temperature scale marks -->
  <g stroke="rgba(255,255,255,0.7)" stroke-width="1.5">
    <line x1="95" y1="55" x2="100" y2="55"/>
    <line x1="95" y1="65" x2="98" y2="65"/>
    <line x1="95" y1="75" x2="100" y2="75"/>
    <line x1="95" y1="85" x2="98" y2="85"/>
    <line x1="95" y1="95" x2="100" y2="95"/>
    <line x1="95" y1="105" x2="98" y2="105"/>
    <line x1="95" y1="115" x2="100" y2="115"/>
    <line x1="95" y1="125" x2="98" y2="125"/>
  </g>
  
  <!-- Heart pulse line -->
  <g stroke="white" stroke-width="3" fill="none" opacity="0.8">
    <path d="M45 100 L55 100 L60 85 L65 115 L70 70 L75 130 L80 100 L120 100 L125 85 L130 115 L135 90 L140 110 L145 100 L155 100"/>
  </g>
  
  <!-- Plus symbol for medical -->
  <g fill="rgba(255,255,255,0.3)">
    <rect x="125" y="50" width="3" height="15" rx="1.5"/>
    <rect x="119" y="56" width="15" height="3" rx="1.5"/>
  </g>
  
  <!-- Highlight effect -->
  <ellipse cx="70" cy="55" rx="15" ry="8" fill="rgba(255,255,255,0.2)" opacity="0.6"/>
</svg>